<svg xmlns="http://www.w3.org/2000/svg" xml:space="preserve" width="2048" height="2048" style="shape-rendering:geometricPrecision;text-rendering:geometricPrecision;image-rendering:optimizeQuality;fill-rule:evenodd;clip-rule:evenodd"><defs><style>.fil4{fill:#202020}.fil1{fill:#717171}.fil6{fill:#a0a0a0}.fil7{fill:#b4b4b5}.fil5{fill:#c4c4c4}.fil2{fill:#c5c5c5}.fil0{fill:#d6d6d6}</style></defs><g id="Layer_x0020_1"><g id="_316057928"><path id="_316060496" class="fil0" d="M263.457 1376.1c-.725-54.573-6.438-154.719-6.511-191.009l80.15-.16c.026 18.586-12.186 107.685-7.483 172.579.347 4.79.698 11.705 1.049 18.59h-67.205z"/><path id="_316060544" class="fil1" d="M256.982 1091.01c.18 75.55-.984 95.986-.984 95.986l81.972.751 16.676-76.667c52.862-243.026-97.806-78.785-97.664-20.07z"/><path id="_316060736" class="fil0" d="M772.703 837.985c-17.682 22.512-54.812 49.556-87.389 82.003l56.562 56.787c33.623-28.321 76.296-82.069 98.592-105.389l-67.765-33.401z"/><path id="_316060376" class="fil1" d="M618.82 986.534c53.549-53.296 67.176-68.569 67.176-68.569l58.495 57.432-42.42 66.003c-134.466 209.224-124.87-13.45-83.251-54.866z"/><path id="_316060568" class="fil0" d="M924.39 713.451c2.987-5 60.1-48.287 92.51-40.647 38.054-1.796 44.39 5.621 36.938 10.062-7.455 4.444 3.565 1.45 1.895 6.893-.963 3.151-6.427 4.773-9.21 5.114-3.792.465 1.896 2.944 1.414 5.64-.488 2.699-4.453 5.756-11.01 7.9-5.756 1.888-4.644 2.643-2.853 3.204 2.184.697 2.445 5.194-8.61 9.925-15.937 6.818-27.894 4.074-38.04 10.045-28.621 16.842-46.01 12.751-62.474 10.748-16.459-1.999-.56-28.884-.56-28.884z"/><path id="_316060160" class="fil0" d="M950.57 746.098c8.4-7.192 10.337-15.487 9.914-17.786-2.845-15.455-30.468-18.454-30.468-18.454a288.757 288.757 0 0 0-7.1 3.926c-53.93 36.235-89.17 67.146-135.03 107.802-63.389 56.712 17.786 77.961 52.581 49.801 42.423-34.332 60.93-83.193 110.102-125.289z"/><path id="_316059656" class="fil2" d="M482.06 1038.27c59.265 0 32.032 10.683 61.827-28.122-40.66-6.25-13.425-25.438-20.968-49.334-7.683-24.318 0-56.311 0-56.311l-81.713-.001s7.678 31.993 0 56.312c-7.544 23.896-9.989 43.086-50.653 49.334 29.796 38.804 32.246 28.122 91.507 28.122z"/><path id="_316059632" d="M355.316 980.272c33.6-7.176 63.99-1.873 85.47-14.277 2.866-1.656 22.7 35.937 40.912 35.937 17.228 0 30.844-36.974 49.22-34.847 23.56 2.726 49.4 7.201 80.92 13.187 5.195.985 11.802 4.801 9.617 9.616-22.082 48.64 0 94.058 0 145.918v240.291H345.7v-239.915c0-43.244 28.927-82.394 0-146.294-2.182-4.818 4.445-8.51 9.617-9.616z" style="fill:gray"/><path id="_316059776" class="fil2" d="M408.206 809.978s-30.383-24.613-43.746 0c-13.367 24.608 37.678 68.469 53.478 60.983 15.796-7.484-9.732-60.983-9.732-60.983z"/><path id="_316059704" class="fil2" d="M555.912 809.978s30.386-24.613 43.753 0c13.366 24.608-37.679 68.469-53.48 60.983-15.795-7.484 9.727-60.983 9.727-60.983z"/><path id="_316059584" class="fil0" d="M571.837 754.785c-2.465-68.812-75.843-68.874-89.775-68.874-13.933 0-87.31.062-89.781 68.874-2.47 68.813 1.235 118.758 17.278 140.948 15.87 21.97 53.78 33.608 72.503 33.608 18.721 0 56.626-11.637 72.505-33.608 16.031-22.19 19.742-72.135 17.27-140.948z"/><path id="_316059440" class="fil1" d="M442.628 955.448s12.906 37.26 39.435 46.222c0 0-27.327 10.236-39.435 38.392 0 0-34.163-55.147-31.454-65.328 2.71-10.18 16.683-18.154 31.454-19.286z"/><path id="_316059416" class="fil1" d="M521.493 955.448s-12.906 37.26-39.43 46.222c0 0 27.326 10.236 39.43 38.392 0 0 34.165-55.147 31.457-65.328-2.712-10.18-16.681-18.154-31.457-19.286z"/><path id="_316059848" class="fil4" d="M407.931 838.484s-6.953-52.148 8.112-68.082c0 0 63.158 38.821 97.055-4.926 0 0 2.029-21.294 14.631-22.163 0 0 17.672 7.099 26.942 52.585l-.29 43.168 16.646-32.16s24.786-64.028-9.403-88.075c0 0 1.741-47.515-95.026-42.588 0 0-60.263-3.477-78.225 64.317-7.89 30.155-2.379 52.835 2.604 65.246l.016.377.674 1.289c2.52 5.883 4.73 9.02 4.738 9.03l11.526 21.982zm-11.526-21.98v-.001"/><path id="_316059032" class="fil5" d="M1784.54 1376.1c.725-54.573 6.438-154.719 6.511-191.009l-80.15-.16c-.026 18.586 12.186 107.685 7.483 172.579-.347 4.79-.698 11.705-1.049 18.59h67.205z"/><path id="_316058768" class="fil6" d="M1791.02 1091.01c-.18 75.55.984 95.986.984 95.986l-81.972.751-16.676-76.667c-52.862-243.026 97.806-78.785 97.664-20.07z"/><path id="_316058912" class="fil5" d="M1275.3 837.985c17.682 22.512 54.812 49.556 87.388 82.003l-56.561 56.787c-33.623-28.321-76.296-82.069-98.592-105.389l67.765-33.401z"/><path id="_316058528" class="fil6" d="M1429.18 986.534c-53.549-53.296-67.176-68.569-67.176-68.569l-58.494 57.432 42.419 66.003c134.466 209.224 124.87-13.45 83.251-54.866z"/><path id="_316059008" class="fil5" d="M1123.61 713.451c-2.987-5-60.1-48.287-92.51-40.647-38.054-1.796-44.39 5.621-36.938 10.062 7.455 4.444-3.565 1.45-1.895 6.893.963 3.151 6.427 4.773 9.21 5.114 3.792.465-1.896 2.944-1.414 5.64.488 2.699 4.453 5.756 11.01 7.9 5.756 1.888 4.643 2.643 2.853 3.204-2.184.697-2.445 5.194 8.61 9.925 15.937 6.818 27.894 4.074 38.04 10.045 28.621 16.842 46.01 12.751 62.474 10.748 16.459-1.999.56-28.884.56-28.884z"/><path id="_316059248" class="fil5" d="M1097.43 746.098c-8.4-7.192-10.337-15.487-9.914-17.786 2.845-15.455 30.468-18.454 30.468-18.454a288.757 288.757 0 0 1 7.1 3.926c53.93 36.235 89.17 67.146 135.03 107.802 63.389 56.712-17.787 77.961-52.581 49.801-42.423-34.332-60.93-83.193-110.102-125.289z"/><path id="_316059152" class="fil7" d="M1565.94 1038.27c-59.264 0-32.03 10.683-61.826-28.122 40.66-6.25 13.426-25.438 20.968-49.334 7.683-24.318 0-56.311 0-56.311l81.713-.001s-7.678 31.993 0 56.312c7.544 23.896 9.99 43.086 50.653 49.334-29.795 38.804-32.246 28.122-91.508 28.122z"/><path id="_316059128" d="M1692.68 980.272c-33.6-7.176-63.99-1.873-85.47-14.277-2.866-1.656-22.7 35.937-40.912 35.937-17.228 0-30.844-36.974-49.22-34.847-23.56 2.726-49.4 7.201-80.92 13.187-5.196.985-11.802 4.801-9.617 9.616 22.082 48.64 0 94.058 0 145.918v240.291h275.756v-239.915c0-43.244-28.927-82.394 0-146.294 2.182-4.818-4.445-8.51-9.617-9.616z" style="fill:#bcbcbc"/><path id="_316058888" class="fil7" d="M1639.79 809.978s30.383-24.613 43.746 0c13.367 24.608-37.678 68.469-53.478 60.983-15.796-7.484 9.732-60.983 9.732-60.983z"/><path id="_316058192" class="fil7" d="M1492.09 809.978s-30.386-24.613-43.753 0c-13.366 24.608 37.679 68.469 53.48 60.983 15.795-7.484-9.727-60.983-9.727-60.983z"/><path id="_316057808" class="fil5" d="M1476.16 754.785c2.465-68.812 75.843-68.874 89.775-68.874 13.932 0 87.31.062 89.781 68.874 2.47 68.813-1.235 118.758-17.278 140.948-15.87 21.97-53.78 33.608-72.503 33.608-18.721 0-56.626-11.637-72.505-33.608-16.031-22.19-19.742-72.135-17.27-140.948z"/><path id="_316058504" class="fil6" d="M1605.37 955.448s-12.907 37.26-39.435 46.222c0 0 27.327 10.236 39.435 38.392 0 0 34.163-55.147 31.454-65.328-2.71-10.18-16.683-18.154-31.454-19.286z"/><path id="_316058456" class="fil6" d="M1526.51 955.448s12.906 37.26 39.43 46.222c0 0-27.326 10.236-39.43 38.392 0 0-34.165-55.147-31.457-65.328 2.712-10.18 16.681-18.154 31.457-19.286z"/><path id="_316058408" class="fil4" d="M1640.07 838.484s6.953-52.148-8.112-68.082c0 0-63.158 38.821-97.055-4.926 0 0-2.029-21.294-14.631-22.163 0 0-17.672 7.099-26.942 52.585l.29 43.168-16.646-32.16s-24.786-64.028 9.403-88.075c0 0-1.741-47.515 95.026-42.588 0 0 60.263-3.477 78.225 64.317 7.89 30.155 2.379 52.835-2.604 65.246l-.016.377-.674 1.289c-2.52 5.883-4.73 9.02-4.738 9.03l-11.526 21.982zm11.526-21.98v-.001"/></g></g><path style="fill:none" d="M0 0h2048v2048H0z"/></svg>